# xmcd CD database file
#
# Track frame offsets:
#	150
#	26513
#	43739
#
# Disc length: 895 seconds
#
# Revision: 0
# Processed by: cddbd v1.5.1PL2 Copyright (c) Steve Scherf et al.
# Submitted via: CDex 1.51
#
DISCID=1d037d03
DTITLE=REVERSLOW - LOVE ROUGH CUTS
DYEAR=2006
DGENRE=ロック (一般)
TTITLE0=チェイス
TTITLE1=SWEETNESS
TTITLE2=アンコール
EXTD=YEAR: 2006
EXTT0=
EXTT1=
EXTT2=
PLAYORDER=
